<svg xmlns="http://www.w3.org/2000/svg" width="150" height="75" viewBox="0 37.5 150 75">
	<path fill="#FFF" d="M22.283 100.839c-1.572-4.762-4.522-11.38-5.84-12.789a.495.495 0 00-.569 0c-1.318 1.408-4.283 8.027-5.855 12.789-.284.868 2.546.868 2.8 0 .315-1.048.63-2.037.944-3.01h4.792c.314.973.629 1.962.943 3.01.255.838 3.1.868 2.785 0zm-7.816-5.092a41.797 41.797 0 011.707-4.088 56.202 56.202 0 011.677 4.088h-3.384zm19.646 3.504c-.194.075-.33.105-.479.105-.42 0-.629-.3-.629-.898v-3.459c0-2.202-1.288-3.534-3.384-3.534-1.393 0-2.696.509-3.729 1.512l-.33-1.063c-.209-.57-2.05-.629-2.05.165v8.76c0 .838 2.44.838 2.44 0v-5.78c.914-1.034 1.812-1.423 2.65-1.423 1.258 0 1.947.659 1.947 2.216v2.98c0 2.037.839 2.726 1.932 2.726.524 0 1.063-.15 1.632-.36.884-.374.839-2.366 0-1.947zm3.37-9.374c.838 0 1.437-.584 1.437-1.527 0-.884-.599-1.497-1.437-1.497-.869 0-1.438.613-1.438 1.497 0 .943.569 1.527 1.438 1.527zm1.722 9.285a.399.399 0 01-.18.045c-.21 0-.315-.165-.315-.435V91.75c0-.988-2.485.03-2.485 1.048v6.574c0 1.468.718 2.082 1.662 2.082.42 0 .883-.105 1.318-.315.883-.449.883-2.35 0-1.976zm18.703.09c-.195.074-.33.104-.48.104-.419 0-.628-.3-.628-.898v-3.459c0-2.202-1.213-3.534-3.205-3.534-1.348 0-2.59.569-3.504 1.722-.509-1.093-1.497-1.722-2.86-1.722-1.228 0-2.366.494-3.264 1.452l-.33-1.003c-.21-.584-2.066-.659-2.066.15v8.775c0 .838 2.455.838 2.455 0v-5.84c.764-.989 1.513-1.363 2.187-1.363 1.168 0 1.752.689 1.752 2.216v4.987c0 .838 2.456.838 2.456 0v-5.885c.733-.974 1.467-1.318 2.14-1.318 1.154 0 1.783.689 1.783 2.216v2.98c0 2.052.853 2.726 1.947 2.726.509 0 1.048-.15 1.617-.36.883-.374.838-2.366 0-1.947zm11.111-3.505c0-2.77-1.527-4.282-4.597-4.282-3.175 0-4.837 1.931-4.837 4.926 0 3.564 2.576 5.062 5.151 5.062 1.183 0 2.291-.315 3.25-.929.599-.374.599-2.096-.18-1.752-1.078.48-1.992.749-2.875.749-1.468 0-2.83-.719-2.875-2.201.569.09 1.198.12 1.767.12 2.635 0 5.196-.704 5.196-1.693zm-6.918-.194c.015-1.603 1.093-2.217 2.426-2.217 1.467 0 2.246.69 2.246 1.723 0 .314-1.363.584-3.1.584-.51 0-1.033-.015-1.572-.09zm19.437 5.915c3.893 0 6.2-2.516 6.2-6.754 0-4.253-2.307-6.768-6.2-6.768-3.909 0-6.215 2.515-6.215 6.768 0 4.238 2.306 6.754 6.215 6.754zm0-2.157c-2.306 0-3.624-1.692-3.624-4.597 0-2.905 1.318-4.612 3.624-4.612 2.276 0 3.624 1.707 3.624 4.612 0 2.905-1.348 4.597-3.624 4.597zm14-7.756c-1.631.044-2.844.673-3.653 1.662l-.314-1.288c-.135-.584-2.127-.6-2.127.195v8.715c0 .838 2.471.838 2.471 0v-5.526c.958-1.033 1.947-1.348 3.16-1.407.733-.03 1.243-2.366.464-2.351zm7.713-.09c-1.273 0-2.456.404-3.31 1.123v-5.181c0-.989-2.455-.09-2.455.898v12.579c0 .793 1.812.733 2.036.15l.315-.84c.853.78 2.081 1.259 3.414 1.259 2.246 0 3.729-1.977 3.729-5.017 0-2.98-1.483-4.971-3.73-4.971zm-1.063 7.846c-.824 0-1.603-.359-2.247-1.033v-3.684c.674-.629 1.423-.958 2.247-.958 1.542-.03 2.35.958 2.35 2.8 0 1.917-.808 2.89-2.35 2.875zm8.041-9.434c.839 0 1.438-.584 1.438-1.527 0-.884-.6-1.497-1.438-1.497-.869 0-1.438.613-1.438 1.497.003.943.57 1.527 1.438 1.527zm1.722 9.285a.399.399 0 01-.18.045c-.21 0-.314-.165-.314-.435V91.75c0-.988-2.486.03-2.486 1.048v6.574c0 1.468.719 2.082 1.662 2.082.42 0 .884-.105 1.318-.315.884-.449.884-2.35 0-1.976zm8.895-.375c-1.977 1.138-3.145.749-3.145-1.213v-3.489h3.295c.838 0 .838-2.156 0-2.156H117.7v-2.47c0-.795-1.946-.795-2.051-.196l-.42 2.666h-1.287c-.839 0-.839 2.156 0 2.156h1.288v3.4c0 3.833 2.935 4.776 5.615 3.294.704-.434.689-2.366 0-1.992zm11.216-3.04c0-2.77-1.527-4.282-4.597-4.282-3.19 0-4.837 1.931-4.837 4.926 0 3.564 2.576 5.062 5.151 5.062 1.183 0 2.291-.315 3.25-.929.584-.374.584-2.096-.18-1.752-1.078.48-1.992.749-2.875.749-1.468 0-2.83-.719-2.875-2.201.569.09 1.198.12 1.767.12 2.635 0 5.196-.704 5.196-1.693zm-6.918-.194c.015-1.603 1.093-2.217 2.426-2.217 1.467 0 2.246.69 2.246 1.723 0 .314-1.363.584-3.1.584-.51 0-1.033-.015-1.572-.09zm14.465-3.998c-1.632.044-2.86.673-3.654 1.662l-.314-1.288c-.15-.584-2.142-.6-2.142.195v8.715c0 .838 2.486.838 2.486 0v-5.526c.959-1.033 1.947-1.348 3.16-1.407.734-.03 1.243-2.366.464-2.351z" />
	<path fill="#D61818" d="M99.553 48.972c-.227-.392-.821-.568-1.764-.523-2.611.128-7.719 1.937-14.107 4.996l.009.17a12.403 12.403 0 00-8.425-3.315c-6.851 0-12.405 5.554-12.405 12.405.003.848.093 1.693.268 2.522-8.586 5.785-13.564 10.533-12.682 12.097 1.037 1.785 9.542-1.047 20.665-6.878a1.067 1.067 0 01-.646-.502 1.058 1.058 0 01-.119-.574c-9.985 5.301-17.375 8.083-18.112 6.82-.607-1.084 3.724-4.895 11.185-9.841a12.404 12.404 0 002.507 4.494 19.548 19.548 0 002.148-.946c.452-.23.98-.51 1.543-.812a10.132 10.132 0 01-3.865-7.947c.001-5.595 4.537-10.13 10.131-10.131a10.135 10.135 0 0110.004 8.549c.4-.268.785-.529 1.127-.776a12.418 12.418 0 00-2.647-4.467c6.136-3.017 10.753-4.75 12.622-4.741.437.004.715.104.83.298.678 1.199-4.699 5.723-13.461 11.325.227.093.415.246.533.461.105.202.143.431.108.655 9.656-6.291 15.508-11.655 14.553-13.339zM75.409 71.246a10.135 10.135 0 01-3.115-.647l-.75.389c-1.145.589-2.383 1.208-3.587 1.722a12.406 12.406 0 007.307 2.398c6.851 0 12.404-5.553 12.404-12.403a12.479 12.479 0 00-.074-1.252c-.388.272-.956.661-1.694 1.148a10.132 10.132 0 01-10.015 8.67 36.931 36.931 0 01-.476-.025z" />
	<path fill="#FFF" d="M55.203 64.445l-1.867-1.05-1.922.941.422-2.099-1.49-1.538 2.127-.247 1.003-1.891.892 1.945 2.109.369-1.576 1.45z">
		<animate attributeName="opacity" values="1; .7; .8; .5; 1" dur="1.2s" begin="0s" repeatCount="indefinite" />
	</path>
	<path fill="#FFF" d="M46.793 56.887l-.853-.481-.879.431.193-.96-.682-.704.973-.112.458-.866.409.89.964.169-.72.663z">
		<animate attributeName="opacity" values="1; .6; .7; .4; 1" dur="1.5s" begin=".2s" repeatCount="indefinite" />
	</path>
	<path fill="#FFF" d="M53.434 53.791l-.563-.106-.406.404-.073-.568-.511-.261.518-.246.091-.565.394.416.566-.089-.275.503z">
		<animate attributeName="opacity" values="1; .7; .8; .5; 1" dur="1.3s" begin="0s" repeatCount="indefinite" />
	</path>
	<path fill="#FFF" d="M93.575 73.191l.654-.087.307-.668.275.688.646.13-.483.513.091.75-.572-.371-.59.333.129-.743-.457-.545">
		<animate attributeName="opacity" values="1; .3; .7; .4; 1" dur="1.6s" begin=".1s" repeatCount="indefinite" />
	</path>
	<path fill="#FFF" d="M101.911 65.271l-.378-.082-.272.313-.05-.439-.342-.203.347-.19.061-.437.265.322.379-.068-.184.388z">
		<animate attributeName="opacity" values="1; .6; .7; .4; 1" dur="1.5s" begin=".4s" repeatCount="indefinite" />
	</path>
	<path fill="#FFF" d="M77.499 67.941a7.8 7.8 0 001.519-.359c-.129.537-.589 1.142-1.229 1.529a2.879 2.879 0 01-.808.332c.469-.376.7-.841.518-1.502zM78.865 65.066a.322.322 0 10-.109.442.315.315 0 00.109-.442zm1.443-.115a.644.644 0 10-.667-1.103.643.643 0 00-.22.884.647.647 0 00.887.219zm1.786-1.464c-.66 2.667-3.029 3.651-4.882 3.837L76.1 65.476c.967-1.514 3.009-3.19 5.704-2.523.125.031.254.066.38.107a5.99 5.99 0 01-.085.408l-.005.019zM76.708 63.757a7.175 7.175 0 00-1.022 1.177c-.497-.466-1.02-.479-1.57-.243.198-.224.427-.41.67-.559.642-.386 1.386-.507 1.922-.375z" />
	<path fill="#D61818" d="M73.903 68.059c.399.092 1.297.204 2.473-.875l.185.312c-.763 1.079-2.299 1.496-3.743 1.215.402-1.327 1.507-2.514 2.869-2.666l.188.313c-1.572.53-1.873 1.317-1.972 1.701z" />
</svg>
